<svg width="56" height="57" viewBox="0 0 56 57" fill="none" xmlns="http://www.w3.org/2000/svg">
<path d="M18.6708 35.7517V19.24H2.15289C0.960998 19.24 0 20.2073 0 21.3929V46.8781C0 52.2322 4.33697 56.5692 9.6911 56.5692H35.1763C36.3682 56.5692 37.3292 55.602 37.3292 54.4163V37.9046H20.8237C19.6318 37.9046 18.6708 36.9436 18.6708 35.7517Z" fill="#F7F7F7"/>
<path d="M46.309 0.569214H20.8238C19.6319 0.569214 18.6709 1.53645 18.6709 2.7221V19.2338H35.1826C36.3745 19.2338 37.3355 20.201 37.3355 21.3867V37.9046H53.8472C55.0391 37.9046 56.0001 36.9374 56.0001 35.7517V10.2666C56.0063 4.91244 51.6631 0.569214 46.309 0.569214Z" fill="#3BFFA6"/>
</svg>
