<svg width="128" height="32" viewBox="0 0 128 32" fill="none" xmlns="http://www.w3.org/2000/svg">
<path d="M38.6961 18.4115H45.5604V23.1223H32.5496V1.02631H38.6961V18.4115Z" fill="#F7F7F7"/>
<path d="M51.3928 22.2475C50.002 21.5072 48.9028 20.4753 48.1176 19.1069C47.3325 17.7385 46.9287 16.1458 46.9287 14.3064C46.9287 12.4893 47.3325 10.8966 48.1401 9.55066C48.9476 8.18228 50.0468 7.15038 51.4376 6.41011C52.8285 5.66983 54.3987 5.31091 56.1485 5.31091C57.8982 5.31091 59.4685 5.66983 60.8593 6.41011C62.2501 7.15038 63.3493 8.18228 64.1569 9.55066C64.9645 10.919 65.3682 12.4893 65.3682 14.3064C65.3682 16.1234 64.9645 17.7161 64.1569 19.0845C63.3493 20.4529 62.2501 21.5072 60.8593 22.225C59.4685 22.9653 57.8758 23.3242 56.126 23.3242C54.3763 23.3242 52.7836 22.9653 51.3928 22.2475ZM58.2571 17.0656C58.8404 16.4374 59.1096 15.5177 59.1096 14.3288C59.1096 13.1399 58.8179 12.2201 58.2571 11.592C57.6739 10.9639 56.9785 10.6499 56.1485 10.6499C55.3185 10.6499 54.6231 10.9639 54.0398 11.592C53.479 12.2201 53.1874 13.1174 53.1874 14.3288C53.1874 15.5401 53.4566 16.4599 53.995 17.088C54.5333 17.7161 55.2287 18.0302 56.1036 18.0302C56.956 18.0077 57.6739 17.6937 58.2571 17.0656Z" fill="#F7F7F7"/>
<path d="M71.3129 22.2475C69.9221 21.5072 68.8229 20.4753 68.0378 19.1069C67.2527 17.7385 66.8489 16.1458 66.8489 14.3064C66.8489 12.4893 67.2527 10.8966 68.0602 9.55066C68.8678 8.18228 69.967 7.15038 71.3578 6.41011C72.7486 5.66983 74.3189 5.31091 76.0687 5.31091C77.8184 5.31091 79.3887 5.66983 80.7795 6.41011C82.1703 7.15038 83.2695 8.18228 84.0771 9.55066C84.8846 10.919 85.2884 12.4893 85.2884 14.3064C85.2884 16.1234 84.8846 17.7161 84.0771 19.0845C83.2695 20.4529 82.1703 21.5072 80.7795 22.225C79.3887 22.9653 77.7959 23.3242 76.0462 23.3242C74.274 23.3467 72.7038 22.9653 71.3129 22.2475ZM78.1773 17.0656C78.7605 16.4374 79.0297 15.5177 79.0297 14.3288C79.0297 13.1399 78.7381 12.2201 78.1773 11.592C77.594 10.9639 76.8987 10.6499 76.0687 10.6499C75.2386 10.6499 74.5432 10.9639 73.96 11.592C73.3992 12.2201 73.1075 13.1174 73.1075 14.3288C73.1075 15.5401 73.3767 16.4599 73.9151 17.088C74.4535 17.7161 75.1489 18.0302 76.0238 18.0302C76.8762 18.0077 77.594 17.6937 78.1773 17.0656Z" fill="#F7F7F7"/>
<path d="M95.9662 6.05121C96.8411 5.58013 97.873 5.33337 99.0619 5.33337C100.453 5.33337 101.731 5.69229 102.875 6.43257C104.019 7.17284 104.917 8.20474 105.567 9.57312C106.218 10.9415 106.554 12.5118 106.554 14.3288C106.554 16.1459 106.218 17.7386 105.567 19.1069C104.917 20.4753 104.019 21.5297 102.875 22.2475C101.731 22.9878 100.475 23.3467 99.0619 23.3467C97.873 23.3467 96.8411 23.0999 95.9662 22.6289C95.0913 22.1578 94.4184 21.5072 93.9248 20.6772V31.5121H87.7783V5.53527H93.9248V7.98041C94.3959 7.17284 95.0689 6.52229 95.9662 6.05121ZM99.3984 11.6369C98.7927 11.0088 98.03 10.6723 97.1327 10.6723C96.2354 10.6723 95.4727 10.9864 94.867 11.6369C94.2613 12.2875 93.9473 13.1623 93.9473 14.3064C93.9473 15.4504 94.2613 16.3477 94.867 16.9983C95.4727 17.6488 96.2354 17.9629 97.1327 17.9629C98.03 17.9629 98.7927 17.6264 99.3984 16.9759C100.004 16.3253 100.318 15.428 100.318 14.3064C100.318 13.1623 100.004 12.265 99.3984 11.6369Z" fill="#F7F7F7"/>
<path d="M128 5.53522L116.851 31.4672H110.189L114.383 22.3596L107.183 5.53522H114.002L117.703 15.4953L121.27 5.53522H128Z" fill="#F7F7F7"/>
<path d="M7.78409 15.1588V8.27197H0.897301C0.403785 8.27197 0 8.67576 0 9.16927V19.7799C0 22.0007 1.81703 23.8177 4.03785 23.8177H14.6484C15.142 23.8177 15.5457 23.4139 15.5457 22.9204V16.0336H8.65895C8.18787 16.0561 7.78409 15.6523 7.78409 15.1588Z" fill="#F7F7F7"/>
<path d="M19.3145 0.487915H8.70394C8.21043 0.487915 7.80664 0.8917 7.80664 1.38522V8.272H14.6934C15.1869 8.272 15.5907 8.67579 15.5907 9.1693V16.0561H22.4775C22.971 16.0561 23.3748 15.6523 23.3748 15.1588V4.5482C23.3524 2.30495 21.5353 0.487915 19.3145 0.487915Z" fill="#3BFFA6"/>
</svg>
