<svg width="150" height="49" viewBox="0 0 150 49" fill="none" xmlns="http://www.w3.org/2000/svg">
<rect y="0.491161" width="149.372" height="48.0177" rx="4.8714" fill="#F7F7F7"/>
<path d="M19.9275 12.4838C19.6476 12.7695 19.4856 13.2143 19.4856 13.7904V34.3385C19.4856 34.9146 19.6476 35.3594 19.9275 35.6451L19.9966 35.7079L31.8064 24.198V23.9262L19.9966 12.4164L19.9275 12.4838Z" fill="url(#paint0_linear_10_1546)"/>
<path d="M35.7386 28.0366L31.8064 24.198V23.9262L35.7434 20.0877L35.8315 20.1376L40.4939 22.7241C41.8245 23.4582 41.8245 24.6661 40.4939 25.4047L35.8315 27.9866L35.7386 28.0366Z" fill="url(#paint1_linear_10_1546)"/>
<path d="M35.8314 27.9866L31.8063 24.0621L19.9275 35.6451C20.3694 36.0981 21.0901 36.1527 21.9097 35.6997L35.8314 27.9866Z" fill="url(#paint2_linear_10_1546)"/>
<path d="M35.8314 20.1376L21.9097 12.4245C21.0901 11.9762 20.3694 12.0308 19.9275 12.4838L31.8063 24.0621L35.8314 20.1376Z" fill="url(#paint3_linear_10_1546)"/>
<path d="M55.1709 14.9971C55.1709 15.773 54.9327 16.3943 54.4633 16.8577C53.9237 17.4071 53.2209 17.6835 52.3596 17.6835C51.5365 17.6835 50.8337 17.4025 50.2571 16.8484C49.6794 16.2863 49.3911 15.5964 49.3911 14.7706C49.3911 13.9449 49.6794 13.255 50.2571 12.6975C50.8337 12.1388 51.5365 11.8578 52.3596 11.8578C52.7694 11.8578 53.1601 11.9402 53.533 12.0935C53.9046 12.248 54.2072 12.4571 54.4264 12.7149L53.9285 13.205C53.5461 12.7648 53.0255 12.5476 52.3596 12.5476C51.7593 12.5476 51.2387 12.7521 50.7968 13.1644C50.3596 13.5778 50.1404 14.1133 50.1404 14.7706C50.1404 15.428 50.3596 15.9681 50.7968 16.3816C51.2387 16.7892 51.7593 16.9983 52.3596 16.9983C52.9969 16.9983 53.533 16.7892 53.9559 16.3769C54.2346 16.104 54.393 15.7277 54.4347 15.2468H52.3596V14.5755H55.128C55.1614 14.7207 55.1709 14.8612 55.1709 14.9971Z" fill="#141414" stroke="#141414" stroke-width="0.114357" stroke-miterlimit="10"/>
<path d="M59.5629 12.6696H56.9625V14.435H59.3068V15.1063H56.9625V16.8717H59.5629V17.5558H56.2263V11.9855H59.5629V12.6696Z" fill="#141414" stroke="#141414" stroke-width="0.114357" stroke-miterlimit="10"/>
<path d="M62.6625 17.5558H61.9263V12.6696H60.3313V11.9855H64.2587V12.6696H62.6625V17.5558Z" fill="#141414" stroke="#141414" stroke-width="0.114357" stroke-miterlimit="10"/>
<path d="M67.1011 17.5558V11.9855H67.8361V17.5558H67.1011Z" fill="#141414" stroke="#141414" stroke-width="0.114357" stroke-miterlimit="10"/>
<path d="M71.0939 17.5558H70.3637V12.6696H68.7627V11.9855H72.6949V12.6696H71.0939V17.5558Z" fill="#141414" stroke="#141414" stroke-width="0.114357" stroke-miterlimit="10"/>
<path d="M80.1305 16.8392C79.567 17.4025 78.869 17.6835 78.0363 17.6835C77.1989 17.6835 76.5009 17.4025 75.9374 16.8392C75.3752 16.277 75.0952 15.5871 75.0952 14.7706C75.0952 13.9541 75.3752 13.2643 75.9374 12.7021C76.5009 12.1388 77.1989 11.8578 78.0363 11.8578C78.8642 11.8578 79.5623 12.1388 80.1257 12.7068C80.6928 13.2735 80.9727 13.9588 80.9727 14.7706C80.9727 15.5871 80.6928 16.277 80.1305 16.8392ZM76.4818 16.3723C76.9059 16.7892 77.4217 16.9983 78.0363 16.9983C78.6462 16.9983 79.1668 16.7892 79.5861 16.3723C80.009 15.9553 80.2234 15.4199 80.2234 14.7706C80.2234 14.1214 80.009 13.586 79.5861 13.169C79.1668 12.7521 78.6462 12.543 78.0363 12.543C77.4217 12.543 76.9059 12.7521 76.4818 13.169C76.0589 13.586 75.8445 14.1214 75.8445 14.7706C75.8445 15.4199 76.0589 15.9553 76.4818 16.3723Z" fill="#141414" stroke="#141414" stroke-width="0.114357" stroke-miterlimit="10"/>
<path d="M82.0056 17.5558V11.9855H82.899L85.6769 16.3177H85.7091L85.6769 15.2468V11.9855H86.4119V17.5558H85.6448L82.7358 13.0099H82.7037L82.7358 14.0854V17.5558H82.0056Z" fill="#141414" stroke="#141414" stroke-width="0.114357" stroke-miterlimit="10"/>
<path d="M74.9141 25.6905C72.6758 25.6905 70.8473 27.3513 70.8473 29.6429C70.8473 31.9158 72.6758 33.5941 74.9141 33.5941C77.1572 33.5941 78.9857 31.9158 78.9857 29.6429C78.9857 27.3513 77.1572 25.6905 74.9141 25.6905ZM74.9141 32.0377C73.6859 32.0377 72.6293 31.0494 72.6293 29.6429C72.6293 28.2178 73.6859 27.2468 74.9141 27.2468C76.1422 27.2468 77.2036 28.2178 77.2036 29.6429C77.2036 31.0494 76.1422 32.0377 74.9141 32.0377ZM66.0407 25.6905C63.7976 25.6905 61.9739 27.3513 61.9739 29.6429C61.9739 31.9158 63.7976 33.5941 66.0407 33.5941C68.2826 33.5941 70.1075 31.9158 70.1075 29.6429C70.1075 27.3513 68.2826 25.6905 66.0407 25.6905ZM66.0407 32.0377C64.8114 32.0377 63.7512 31.0494 63.7512 29.6429C63.7512 28.2178 64.8114 27.2468 66.0407 27.2468C67.2689 27.2468 68.3255 28.2178 68.3255 29.6429C68.3255 31.0494 67.2689 32.0377 66.0407 32.0377ZM55.4818 26.9019V28.5813H59.595C59.4747 29.5197 59.1531 30.2096 58.6599 30.6905C58.0596 31.2712 57.1244 31.9158 55.4818 31.9158C52.9504 31.9158 50.9682 29.9239 50.9682 27.4559C50.9682 24.9878 52.9504 22.996 55.4818 22.996C56.8505 22.996 57.8463 23.5174 58.5813 24.1934L59.7952 23.0099C58.7671 22.0529 57.3996 21.3177 55.4818 21.3177C52.0106 21.3177 49.0933 24.0714 49.0933 27.4559C49.0933 30.8403 52.0106 33.5941 55.4818 33.5941C57.3579 33.5941 58.7671 32.9948 59.875 31.8705C61.0102 30.7636 61.364 29.2073 61.364 27.9506C61.364 27.5604 61.3306 27.2015 61.2711 26.9019H55.4818ZM98.6586 28.2038C98.3239 27.32 97.2911 25.6905 95.1874 25.6905C93.1028 25.6905 91.3672 27.2921 91.3672 29.6429C91.3672 31.8566 93.0849 33.5941 95.3875 33.5941C97.2494 33.5941 98.3239 32.4872 98.7658 31.8426L97.384 30.9448C96.923 31.6022 96.2953 32.0377 95.3875 32.0377C94.4858 32.0377 93.839 31.6347 93.4244 30.8403L98.8457 28.6533L98.6586 28.2038ZM93.1314 29.5197C93.0849 27.9959 94.3452 27.2155 95.2482 27.2155C95.9558 27.2155 96.5561 27.5604 96.7563 28.054L93.1314 29.5197ZM88.7251 33.3536H90.5071V21.7393H88.7251V33.3536ZM85.8066 26.5709H85.747C85.3468 26.1086 84.5832 25.6905 83.6159 25.6905C81.5861 25.6905 79.7302 27.428 79.7302 29.6556C79.7302 31.8705 81.5861 33.5941 83.6159 33.5941C84.5832 33.5941 85.3468 33.1725 85.747 32.6963H85.8066V33.2631C85.8066 34.7741 84.9787 35.5859 83.6433 35.5859C82.5546 35.5859 81.8791 34.8194 81.6004 34.1748L80.0506 34.8054C80.4973 35.8531 81.6802 37.1423 83.6433 37.1423C85.7327 37.1423 87.4957 35.9437 87.4957 33.0273V25.9309H85.8066V26.5709ZM83.7684 32.0377C82.5403 32.0377 81.5122 31.0354 81.5122 29.6556C81.5122 28.2631 82.5403 27.2468 83.7684 27.2468C84.9787 27.2468 85.9329 28.2631 85.9329 29.6556C85.9329 31.0354 84.9787 32.0377 83.7684 32.0377ZM107.002 21.7393H102.74V33.3536H104.517V28.953H107.002C108.976 28.953 110.911 27.5604 110.911 25.3455C110.911 23.1318 108.971 21.7393 107.002 21.7393ZM107.048 27.3374H104.517V23.3548H107.048C108.375 23.3548 109.133 24.4292 109.133 25.3455C109.133 26.2445 108.375 27.3374 107.048 27.3374ZM118.035 25.6684C116.751 25.6684 115.415 26.2213 114.866 27.4466L116.444 28.0912C116.783 27.4466 117.407 27.2375 118.067 27.2375C118.989 27.2375 119.924 27.7776 119.939 28.7311V28.8531C119.617 28.6719 118.928 28.4036 118.081 28.4036C116.383 28.4036 114.652 29.3153 114.652 31.0168C114.652 32.5732 116.043 33.5755 117.607 33.5755C118.803 33.5755 119.463 33.0493 119.878 32.4373H119.939V33.3351H121.655V28.8798C121.655 26.8206 120.078 25.6684 118.035 25.6684ZM117.821 32.0331C117.239 32.0331 116.429 31.752 116.429 31.0494C116.429 30.1504 117.439 29.8055 118.314 29.8055C119.096 29.8055 119.463 29.9739 119.939 30.1957C119.799 31.2712 118.85 32.0331 117.821 32.0331ZM127.909 25.9228L125.866 30.9576H125.805L123.693 25.9228H121.777L124.95 32.9588L123.139 36.874H124.996L129.886 25.9228H127.909ZM111.888 33.3536H113.67V21.7393H111.888V33.3536Z" fill="#141414"/>
<defs>
<linearGradient id="paint0_linear_10_1546" x1="30.7578" y1="34.5525" x2="15.1694" y2="18.5644" gradientUnits="userSpaceOnUse">
<stop stop-color="#00A0FF"/>
<stop offset="0.0066" stop-color="#00A1FF"/>
<stop offset="0.2601" stop-color="#00BEFF"/>
<stop offset="0.5122" stop-color="#00D2FF"/>
<stop offset="0.7604" stop-color="#00DFFF"/>
<stop offset="1" stop-color="#00E3FF"/>
</linearGradient>
<linearGradient id="paint1_linear_10_1546" x1="42.2266" y1="24.0608" x2="19.1676" y2="24.0608" gradientUnits="userSpaceOnUse">
<stop stop-color="#FFE000"/>
<stop offset="0.4087" stop-color="#FFBD00"/>
<stop offset="0.7754" stop-color="#FFA500"/>
<stop offset="1" stop-color="#FF9C00"/>
</linearGradient>
<linearGradient id="paint2_linear_10_1546" x1="33.6427" y1="21.9287" x2="12.5036" y2="0.247589" gradientUnits="userSpaceOnUse">
<stop stop-color="#FF3A44"/>
<stop offset="1" stop-color="#C31162"/>
</linearGradient>
<linearGradient id="paint3_linear_10_1546" x1="16.9373" y1="42.4814" x2="26.3769" y2="32.7999" gradientUnits="userSpaceOnUse">
<stop stop-color="#32A071"/>
<stop offset="0.0685" stop-color="#2DA771"/>
<stop offset="0.4762" stop-color="#15CF74"/>
<stop offset="0.8009" stop-color="#06E775"/>
<stop offset="1" stop-color="#00F076"/>
</linearGradient>
</defs>
</svg>
