<svg width="144" height="51" viewBox="0 0 144 51" fill="none" xmlns="http://www.w3.org/2000/svg">
<rect x="0.807617" y="0.569214" width="143.192" height="49.8616" rx="4.8714" fill="#F7F7F7"/>
<path d="M36.8141 24.5416C36.7864 21.5469 39.329 20.09 39.4452 20.0222C38.0053 17.9753 35.7734 17.6956 34.9891 17.6733C33.1146 17.481 31.2963 18.7669 30.3415 18.7669C29.3675 18.7669 27.8971 17.6919 26.3123 17.7235C24.2729 17.7541 22.3651 18.9054 21.3187 20.693C19.1593 24.3381 20.7698 29.6946 22.8387 32.641C23.8736 34.0839 25.083 35.6951 26.6658 35.6384C28.2144 35.5762 28.7929 34.6758 30.6617 34.6758C32.5133 34.6758 33.0565 35.6384 34.6708 35.6022C36.3328 35.5762 37.3792 34.1527 38.3779 32.6967C39.5739 31.0428 40.0542 29.414 40.0732 29.3304C40.0342 29.3174 36.8455 28.1309 36.8141 24.5416Z" fill="#141414"/>
<path d="M33.7645 15.7351C34.5974 14.7195 35.1673 13.3379 35.0091 11.9358C33.8036 11.9878 32.296 12.7488 31.4279 13.7421C30.6598 14.6173 29.9736 16.0519 30.1509 17.4011C31.505 17.4996 32.8954 16.7349 33.7645 15.7351Z" fill="#141414"/>
<path d="M54.8461 15.4591C54.8461 16.5528 54.5097 17.376 53.8379 17.9288C53.2156 18.4389 52.3312 18.6945 51.1858 18.6945C50.6178 18.6945 50.1318 18.6703 49.7249 18.622V12.6466C50.2557 12.563 50.8274 12.5202 51.445 12.5202C52.5361 12.5202 53.3585 12.7516 53.9132 13.2143C54.5345 13.7374 54.8461 14.4854 54.8461 15.4591ZM53.7931 15.4861C53.7931 14.7772 53.6006 14.2336 53.2156 13.8545C52.8306 13.4763 52.2683 13.2868 51.5279 13.2868C51.2134 13.2868 50.9456 13.3072 50.7236 13.35V17.8926C50.8465 17.9112 51.0714 17.9195 51.3983 17.9195C52.1626 17.9195 52.7525 17.7123 53.168 17.2979C53.5835 16.8835 53.7931 16.2796 53.7931 15.4861Z" fill="#141414"/>
<path d="M60.4297 16.4143C60.4297 17.0879 60.2324 17.6399 59.8379 18.0728C59.4243 18.5179 58.8763 18.74 58.1921 18.74C57.5326 18.74 57.0075 18.5272 56.6159 18.0998C56.2251 17.6733 56.0298 17.1353 56.0298 16.4868C56.0298 15.8085 56.2309 15.2519 56.6349 14.8199C57.039 14.3878 57.5822 14.1713 58.2664 14.1713C58.9259 14.1713 59.4557 14.3841 59.8569 14.8106C60.2381 15.225 60.4297 15.7602 60.4297 16.4143ZM59.3938 16.4459C59.3938 16.0417 59.3042 15.6951 59.126 15.4062C58.9163 15.0568 58.6181 14.8821 58.2302 14.8821C57.829 14.8821 57.524 15.0568 57.3144 15.4062C57.1352 15.6951 57.0466 16.0473 57.0466 16.4636C57.0466 16.8677 57.1362 17.2143 57.3144 17.5033C57.5307 17.8526 57.8319 18.0273 58.2207 18.0273C58.6019 18.0273 58.9011 17.8498 59.1165 17.494C59.3013 17.1994 59.3938 16.8501 59.3938 16.4459Z" fill="#141414"/>
<path d="M67.916 14.2605L66.5104 18.6406H65.5955L65.0133 16.7386C64.8656 16.2638 64.7455 15.7918 64.6521 15.3235H64.634C64.5473 15.8048 64.4272 16.2759 64.2728 16.7386L63.6543 18.6406H62.729L61.4072 14.2605H62.4336L62.9415 16.3428C63.0644 16.8352 63.1655 17.3044 63.2465 17.7486H63.2646C63.3389 17.3825 63.4618 16.9161 63.6353 16.3521L64.2728 14.2615H65.0867L65.6975 16.3075C65.8452 16.8064 65.9653 17.2868 66.0577 17.7495H66.0854C66.153 17.2989 66.255 16.8185 66.3903 16.3075L66.9354 14.2615H67.916V14.2605Z" fill="#141414"/>
<path d="M73.0937 18.6406H72.095V16.1319C72.095 15.3588 71.7938 14.9723 71.1896 14.9723C70.8933 14.9723 70.6541 15.0782 70.4682 15.291C70.2843 15.5038 70.1909 15.7546 70.1909 16.0417V18.6396H69.1922V15.5121C69.1922 15.1275 69.1798 14.7103 69.156 14.2587H70.0337L70.0804 14.9435H70.108C70.2243 14.7307 70.3977 14.5551 70.6255 14.4148C70.8961 14.2513 71.1992 14.1686 71.5308 14.1686C71.9501 14.1686 72.2989 14.3005 72.5762 14.5653C72.9212 14.8896 73.0937 15.3737 73.0937 16.0166V18.6406Z" fill="#141414"/>
<path d="M75.8479 18.6406H74.8501V12.2508H75.8479V18.6406Z" fill="#141414"/>
<path d="M81.7275 16.4143C81.7275 17.0879 81.5303 17.6399 81.1357 18.0728C80.7221 18.5179 80.1732 18.74 79.4899 18.74C78.8295 18.74 78.3044 18.5272 77.9137 18.0998C77.523 17.6733 77.3276 17.1353 77.3276 16.4868C77.3276 15.8085 77.5287 15.2519 77.9328 14.8199C78.3368 14.3878 78.88 14.1713 79.5633 14.1713C80.2237 14.1713 80.7526 14.3841 81.1548 14.8106C81.536 15.225 81.7275 15.7602 81.7275 16.4143ZM80.6907 16.4459C80.6907 16.0417 80.6011 15.6951 80.4229 15.4062C80.2142 15.0568 79.915 14.8821 79.5281 14.8821C79.1259 14.8821 78.8209 15.0568 78.6122 15.4062C78.4331 15.6951 78.3445 16.0473 78.3445 16.4636C78.3445 16.8677 78.434 17.2143 78.6122 17.5033C78.8286 17.8526 79.1297 18.0273 79.5185 18.0273C79.8997 18.0273 80.198 17.8498 80.4134 17.494C80.5992 17.1994 80.6907 16.8501 80.6907 16.4459Z" fill="#141414"/>
<path d="M86.5611 18.6406H85.6643L85.59 18.136H85.5623C85.2555 18.5383 84.8181 18.74 84.2501 18.74C83.826 18.74 83.483 18.6071 83.2247 18.3432C82.9903 18.1035 82.873 17.8052 82.873 17.4512C82.873 16.9161 83.1018 16.5082 83.562 16.2257C84.0214 15.9432 84.6675 15.8048 85.4994 15.8113V15.7295C85.4994 15.1525 85.1888 14.8645 84.5665 14.8645C84.1233 14.8645 83.7326 14.9732 83.3953 15.1888L83.1923 14.5495C83.6097 14.2977 84.1253 14.1713 84.7333 14.1713C85.9073 14.1713 86.4963 14.7753 86.4963 15.9832V17.5962C86.4963 18.0338 86.5182 18.3823 86.5611 18.6406ZM85.5242 17.1353V16.4598C84.4226 16.4413 83.8718 16.7358 83.8718 17.3425C83.8718 17.5711 83.9347 17.7421 84.0633 17.8564C84.192 17.9706 84.3559 18.0273 84.5512 18.0273C84.7704 18.0273 84.9753 17.9595 85.1621 17.8248C85.3498 17.6891 85.4651 17.5172 85.508 17.3063C85.5185 17.2589 85.5242 17.2013 85.5242 17.1353Z" fill="#141414"/>
<path d="M92.2361 18.6406H91.3499L91.3032 17.9372H91.2755C90.9925 18.4724 90.5103 18.74 89.8327 18.74C89.2914 18.74 88.8407 18.5328 88.4833 18.1184C88.126 17.704 87.9478 17.166 87.9478 16.5054C87.9478 15.7964 88.1412 15.2222 88.53 14.7837C88.9064 14.3748 89.3677 14.1704 89.9166 14.1704C90.5198 14.1704 90.942 14.3683 91.1821 14.7651H91.2012V12.2508H92.2009V17.4605C92.2009 17.887 92.2123 18.28 92.2361 18.6406ZM91.2012 16.7934V16.0631C91.2012 15.9367 91.1917 15.8345 91.1736 15.7565C91.1173 15.5223 90.9963 15.3254 90.8124 15.1665C90.6266 15.0076 90.4026 14.9277 90.1443 14.9277C89.7717 14.9277 89.4801 15.0717 89.2657 15.3607C89.0532 15.6496 88.9455 16.0185 88.9455 16.4691C88.9455 16.9021 89.0475 17.2533 89.2524 17.5237C89.4687 17.8118 89.7603 17.9558 90.1253 17.9558C90.4531 17.9558 90.7152 17.8359 90.9144 17.5953C91.1069 17.3732 91.2012 17.1056 91.2012 16.7934Z" fill="#141414"/>
<path d="M100.778 16.4143C100.778 17.0879 100.58 17.6399 100.186 18.0728C99.7722 18.5179 99.2252 18.74 98.54 18.74C97.8815 18.74 97.3564 18.5272 96.9638 18.0998C96.5731 17.6733 96.3777 17.1353 96.3777 16.4868C96.3777 15.8085 96.5788 15.2519 96.9828 14.8199C97.3869 14.3878 97.9301 14.1713 98.6153 14.1713C99.2738 14.1713 99.8046 14.3841 100.205 14.8106C100.586 15.225 100.778 15.7602 100.778 16.4143ZM99.7426 16.4459C99.7426 16.0417 99.6531 15.6951 99.4748 15.4062C99.2642 15.0568 98.9669 14.8821 98.5781 14.8821C98.1779 14.8821 97.8729 15.0568 97.6623 15.4062C97.4831 15.6951 97.3945 16.0473 97.3945 16.4636C97.3945 16.8677 97.4841 17.2143 97.6623 17.5033C97.8786 17.8526 98.1798 18.0273 98.5686 18.0273C98.9498 18.0273 99.25 17.8498 99.4653 17.494C99.6492 17.1994 99.7426 16.8501 99.7426 16.4459Z" fill="#141414"/>
<path d="M106.148 18.6406H105.15V16.1319C105.15 15.3588 104.849 14.9723 104.244 14.9723C103.947 14.9723 103.708 15.0782 103.523 15.291C103.338 15.5038 103.246 15.7546 103.246 16.0417V18.6396H102.246V15.5121C102.246 15.1275 102.235 14.7103 102.211 14.2587H103.088L103.134 14.9435H103.162C103.279 14.7307 103.453 14.5551 103.679 14.4148C103.951 14.2513 104.253 14.1686 104.586 14.1686C105.004 14.1686 105.353 14.3005 105.63 14.5653C105.976 14.8896 106.148 15.3737 106.148 16.0166V18.6406Z" fill="#141414"/>
<path d="M112.869 14.9899H111.769V17.1177C111.769 17.6584 111.964 17.9288 112.351 17.9288C112.53 17.9288 112.679 17.914 112.796 17.8833L112.822 18.622C112.625 18.6945 112.366 18.7307 112.046 18.7307C111.652 18.7307 111.345 18.6136 111.123 18.3795C110.9 18.1453 110.789 17.7514 110.789 17.1985V14.9899H110.133V14.2605H110.789V13.4578L111.768 13.1697V14.2596H112.868V14.9899H112.869Z" fill="#141414"/>
<path d="M118.156 18.6406H117.156V16.1504C117.156 15.3653 116.855 14.9723 116.252 14.9723C115.789 14.9723 115.473 15.1999 115.299 15.6552C115.27 15.7509 115.252 15.868 115.252 16.0055V18.6396H114.255V12.2508H115.252V14.8905H115.271C115.586 14.4101 116.037 14.1704 116.621 14.1704C117.034 14.1704 117.377 14.3024 117.648 14.5672C117.987 14.897 118.156 15.3876 118.156 16.0362V18.6406Z" fill="#141414"/>
<path d="M123.61 16.2433C123.61 16.418 123.597 16.5648 123.573 16.6847H120.578C120.591 17.1177 120.734 17.4475 121.011 17.6761C121.265 17.8805 121.591 17.9827 121.992 17.9827C122.435 17.9827 122.839 17.914 123.203 17.7755L123.359 18.4519C122.933 18.6322 122.432 18.7223 121.852 18.7223C121.156 18.7223 120.608 18.5226 120.212 18.123C119.813 17.7235 119.616 17.1874 119.616 16.5147C119.616 15.854 119.8 15.304 120.171 14.8654C120.558 14.3971 121.081 14.163 121.741 14.163C122.387 14.163 122.878 14.3971 123.21 14.8654C123.477 15.2371 123.61 15.697 123.61 16.2433ZM122.657 15.9915C122.665 15.7026 122.599 15.4536 122.463 15.2436C122.29 14.9732 122.026 14.8375 121.669 14.8375C121.343 14.8375 121.077 14.9695 120.874 15.2343C120.708 15.4452 120.61 15.697 120.578 15.9915H122.657Z" fill="#141414"/>
<path d="M59.2252 35.4312H57.061L55.8755 31.7992H51.7549L50.6256 35.4312H48.5186L52.6011 23.0661H55.1227L59.2252 35.4312ZM55.5181 30.2754L54.4461 27.0466C54.3326 26.7167 54.1201 25.9399 53.8066 24.7172H53.7685C53.6436 25.2431 53.4426 26.0198 53.1662 27.0466L52.1132 30.2754H55.5181Z" fill="#141414"/>
<path d="M69.7242 30.8635C69.7242 32.3799 69.3039 33.5785 68.4634 34.4584C67.7105 35.2417 66.7757 35.6329 65.6597 35.6329C64.4552 35.6329 63.5899 35.211 63.0629 34.3673H63.0247V39.0642H60.993V29.4503C60.993 28.497 60.9673 27.5186 60.9177 26.5151H62.7046L62.818 27.9283H62.8561C63.5336 26.8635 64.5619 26.3321 65.9418 26.3321C67.0206 26.3321 67.9211 26.7474 68.6416 27.579C69.3639 28.4115 69.7242 29.506 69.7242 30.8635ZM67.6543 30.936C67.6543 30.0682 67.4542 29.3527 67.052 28.7897C66.6127 28.2024 66.0228 27.9088 65.2833 27.9088C64.782 27.9088 64.3265 28.0724 63.9196 28.3948C63.5117 28.72 63.2449 29.1446 63.12 29.6705C63.0571 29.9158 63.0257 30.1165 63.0257 30.2744V31.7611C63.0257 32.4096 63.2296 32.9569 63.6375 33.4038C64.0454 33.8507 64.5752 34.0737 65.2271 34.0737C65.9923 34.0737 66.5879 33.7857 67.0139 33.2115C67.4408 32.6363 67.6543 31.8782 67.6543 30.936Z" fill="#141414"/>
<path d="M80.242 30.8635C80.242 32.3799 79.8217 33.5785 78.9803 34.4584C78.2284 35.2417 77.2935 35.6329 76.1776 35.6329C74.973 35.6329 74.1077 35.211 73.5817 34.3673H73.5435V39.0642H71.5118V29.4503C71.5118 28.497 71.4861 27.5186 71.4365 26.5151H73.2234L73.3368 27.9283H73.3749C74.0515 26.8635 75.0797 26.3321 76.4606 26.3321C77.5384 26.3321 78.439 26.7474 79.1613 27.579C79.8808 28.4115 80.242 29.506 80.242 30.8635ZM78.1721 30.936C78.1721 30.0682 77.9711 29.3527 77.5689 28.7897C77.1296 28.2024 76.5416 27.9088 75.8011 27.9088C75.2989 27.9088 74.8444 28.0724 74.4365 28.3948C74.0286 28.72 73.7627 29.1446 73.6379 29.6705C73.5759 29.9158 73.5435 30.1165 73.5435 30.2744V31.7611C73.5435 32.4096 73.7475 32.9569 74.1535 33.4038C74.5613 33.8498 75.0912 34.0737 75.7449 34.0737C76.5102 34.0737 77.1058 33.7857 77.5318 33.2115C77.9587 32.6363 78.1721 31.8782 78.1721 30.936Z" fill="#141414"/>
<path d="M92.0018 31.9636C92.0018 33.0154 91.6273 33.8712 90.8754 34.5318C90.0491 35.2538 88.8989 35.6143 87.4208 35.6143C86.0562 35.6143 84.9622 35.3578 84.134 34.844L84.6048 33.1929C85.4968 33.7188 86.4755 33.9827 87.5419 33.9827C88.3071 33.9827 88.9027 33.8136 89.3306 33.4772C89.7566 33.1409 89.9691 32.6893 89.9691 32.1262C89.9691 31.6245 89.7937 31.2017 89.4421 30.8589C89.0924 30.516 88.5082 30.1973 87.6924 29.9028C85.472 29.0954 84.3628 27.9125 84.3628 26.3571C84.3628 25.3407 84.7516 24.5072 85.5301 23.8587C86.3059 23.2092 87.3408 22.8849 88.6349 22.8849C89.789 22.8849 90.7477 23.081 91.5129 23.4721L91.005 25.087C90.2902 24.7079 89.4821 24.5184 88.5778 24.5184C87.863 24.5184 87.3046 24.6903 86.9043 25.0322C86.566 25.3379 86.3964 25.7105 86.3964 26.1518C86.3964 26.6405 86.5898 27.0447 86.9787 27.3625C87.317 27.6561 87.9316 27.9739 88.8236 28.3167C89.9148 28.7451 90.7162 29.2459 91.2318 29.8201C91.7454 30.3924 92.0018 31.1088 92.0018 31.9636Z" fill="#141414"/>
<path d="M98.7193 28.0017H96.4798V32.3306C96.4798 33.4317 96.8744 33.9817 97.6653 33.9817C98.0284 33.9817 98.3296 33.9511 98.5678 33.8898L98.624 35.394C98.2238 35.5399 97.6968 35.6133 97.044 35.6133C96.2416 35.6133 95.6145 35.3745 95.1619 34.8979C94.7111 34.4203 94.4843 33.6194 94.4843 32.4942V27.9999H93.1501V26.5132H94.4843V24.8807L96.4798 24.2935V26.5132H98.7193V28.0017Z" fill="#141414"/>
<path d="M108.824 30.8998C108.824 32.2703 108.422 33.3955 107.619 34.2754C106.778 35.1813 105.661 35.6328 104.268 35.6328C102.927 35.6328 101.858 35.1989 101.062 34.3311C100.265 33.4633 99.8667 32.3678 99.8667 31.0475C99.8667 29.6658 100.276 28.5341 101.099 27.6542C101.919 26.7734 103.027 26.333 104.419 26.333C105.761 26.333 106.841 26.7669 107.655 27.6357C108.435 28.4784 108.824 29.5664 108.824 30.8998ZM106.716 30.9639C106.716 30.1416 106.536 29.4363 106.171 28.8482C105.745 28.1365 105.136 27.7815 104.347 27.7815C103.53 27.7815 102.91 28.1374 102.484 28.8482C102.119 29.4373 101.938 30.1536 101.938 31.001C101.938 31.8233 102.119 32.5286 102.484 33.1158C102.923 33.8275 103.537 34.1824 104.329 34.1824C105.104 34.1824 105.713 33.8201 106.153 33.0972C106.527 32.4979 106.716 31.7852 106.716 30.9639Z" fill="#141414"/>
<path d="M115.428 28.2573C115.227 28.221 115.012 28.2024 114.787 28.2024C114.073 28.2024 113.52 28.4654 113.131 28.9922C112.793 29.4568 112.623 30.044 112.623 30.753V35.4312H110.592L110.611 29.323C110.611 28.2954 110.586 27.3597 110.535 26.516H112.305L112.379 28.222H112.435C112.65 27.6357 112.988 27.1637 113.451 26.8096C113.904 26.4909 114.393 26.3321 114.92 26.3321C115.108 26.3321 115.277 26.3451 115.428 26.3683V28.2573Z" fill="#141414"/>
<path d="M124.514 30.5513C124.514 30.9063 124.491 31.2054 124.44 31.4498H118.345C118.369 32.3306 118.663 33.0043 119.229 33.4689C119.743 33.8842 120.407 34.0923 121.223 34.0923C122.125 34.0923 122.949 33.952 123.689 33.6705L124.007 35.0456C123.142 35.4136 122.121 35.5966 120.942 35.5966C119.524 35.5966 118.411 35.1896 117.601 34.3766C116.792 33.5636 116.387 32.4719 116.387 31.1023C116.387 29.7578 116.764 28.6382 117.518 27.7453C118.307 26.792 119.373 26.3153 120.715 26.3153C122.033 26.3153 123.031 26.792 123.708 27.7453C124.245 28.5025 124.514 29.4391 124.514 30.5513ZM122.577 30.0375C122.59 29.4503 122.458 28.943 122.182 28.5146C121.831 27.9636 121.291 27.6886 120.563 27.6886C119.899 27.6886 119.359 27.9571 118.946 28.496C118.608 28.9244 118.407 29.4382 118.345 30.0366H122.577V30.0375Z" fill="#141414"/>
</svg>
