<svg width="1011" height="1046" viewBox="0 0 1011 1046" fill="none" xmlns="http://www.w3.org/2000/svg">
<g opacity="0.25">
<path d="M364.748 639.316V316.748H42.0582C18.7738 316.748 0 335.643 0 358.806V856.677C0 961.274 84.7258 1046 189.323 1046H687.194C710.478 1046 729.252 1027.1 729.252 1003.94V681.374H406.806C383.522 681.374 364.748 662.6 364.748 639.316Z" fill="#0E0E0E"/>
<path d="M904.677 -48H406.806C383.522 -48 364.748 -29.1043 364.748 -5.94184V316.626H687.316C710.6 316.626 729.374 335.522 729.374 358.684V681.374H1051.94C1075.23 681.374 1094 662.478 1094 639.316V141.445C1094.12 36.8479 1009.27 -48 904.677 -48Z" fill="black"/>
</g>
</svg>
