<svg width="189" height="267" viewBox="0 0 189 267" fill="none" xmlns="http://www.w3.org/2000/svg">
<g clip-path="url(#clip0_20_744)">
<path d="M189 52.4718L171.782 245.525L94.3843 267L17.2001 245.555L0 52.4718H189Z" fill="#264DE4"/>
<path d="M157.041 233.232L171.755 68.2592H94.5V250.585L157.041 233.232Z" fill="#2965F1"/>
<path d="M39.4309 139.871L41.5516 163.552H94.4999V139.871H39.4309Z" fill="#EBEBEB"/>
<path d="M94.5 91.9403H94.4182H35.1699L37.3208 115.621H94.5V91.9403Z" fill="#EBEBEB"/>
<path d="M94.5001 226.011V201.373L94.3964 201.4L68.0452 194.279L66.3606 175.392H53.556H42.6089L45.9238 212.575L94.3912 226.041L94.5001 226.011Z" fill="#EBEBEB"/>
<path d="M44.4797 0H73.1371V11.9941H56.4637V23.9883H73.1371V35.9824H44.4797V0Z" fill="white"/>
<path d="M78.8687 0H107.526V10.4297H90.8526V12.5156H107.526V36.5039H78.8687V25.5527H95.542V23.4668H78.8687V0Z" fill="white"/>
<path d="M113.258 0H141.915V10.4297H125.242V12.5156H141.915V36.5039H113.258V25.5527H129.931V23.4668H113.258V0Z" fill="white"/>
<path d="M123.554 163.552L120.807 194.264L94.4182 201.393V226.03L142.924 212.575L143.28 208.574L148.84 146.23L149.417 139.871L153.689 91.9403H94.4182V115.621H127.759L125.606 139.871H94.4182V163.552H123.554Z" fill="white"/>
</g>
<defs>
<clipPath id="clip0_20_744">
<rect width="189" height="267" fill="white"/>
</clipPath>
</defs>
</svg>
