<svg width="256" height="256" viewBox="0 0 256 256" fill="none" xmlns="http://www.w3.org/2000/svg">
<path d="M54.2 0H65.6999V11.4H76.3V0H87.8V34.5H76.3V23H65.8V34.5H54.2M103 11.5H92.8499V0H124.7V11.5H114.5V34.5H103M129.75 0H141.8L149.2 12.15L156.6 0H168.65V34.5H157.15V17.4L149.1 29.8L141.05 17.4V34.5H129.75M174.35 0H185.85V23.1H202.15V34.5H174.35" fill="white"/>
<path d="M53.8 235.5L37.3 50.3H218.7L202.2 235.4L127.85 256" fill="#E44D26"/>
<path d="M128 240.25V65.5H202.15L188 223.5" fill="#F16529"/>
<path d="M71 88.15H128V110.85H95.9L98 134.1H128V156.75H77.2M78.2 168.15H101L102.6 186.3L128 193.1V216.8L81.4 203.8" fill="#EBEBEB"/>
<path d="M184.8 88.15H127.9V110.85H182.7M180.65 134.1H127.9V156.8H155.9L153.25 186.3L127.9 193.1V216.7L174.4 203.8" fill="white"/>
</svg>
