<svg width="224" height="224" viewBox="0 0 224 224" fill="none" xmlns="http://www.w3.org/2000/svg">
<path d="M74.6833 140.73V74.6833H8.61154C3.84399 74.6833 0 78.5523 0 83.2949V185.236C0 206.652 17.3479 224 38.7644 224H140.705C145.473 224 149.317 220.131 149.317 215.389V149.342H83.2948C78.5273 149.342 74.6833 145.498 74.6833 140.73Z" fill="#F7F7F7"/>
<path d="M185.236 0H83.2949C78.5273 0 74.6833 3.86895 74.6833 8.61154V74.6584H140.73C145.498 74.6584 149.342 78.5273 149.342 83.2699V149.342H215.388C220.156 149.342 224 145.473 224 140.73V38.7894C224.025 17.3729 206.652 0 185.236 0Z" fill="#3BFFA6"/>
</svg>
