<svg width="369" height="329" viewBox="0 0 369 329" fill="none" xmlns="http://www.w3.org/2000/svg">
<g clip-path="url(#clip0_20_756)">
<path d="M184.499 197.04C202.663 197.04 217.388 182.315 217.388 164.151C217.388 145.987 202.663 131.262 184.499 131.262C166.335 131.262 151.61 145.987 151.61 164.151C151.61 182.315 166.335 197.04 184.499 197.04Z" fill="#61DAFB"/>
<path d="M184.5 231.535C281.966 231.535 360.978 201.367 360.978 164.153C360.978 126.938 281.966 96.77 184.5 96.77C87.0337 96.77 8.02173 126.938 8.02173 164.153C8.02173 201.367 87.0337 231.535 184.5 231.535Z" stroke="#61DAFB" stroke-width="16.0435"/>
<path d="M126.143 197.844C174.876 282.252 240.509 335.595 272.737 316.987C304.966 298.38 291.587 214.87 242.853 130.461C194.12 46.0531 128.488 -7.28918 96.2592 11.318C64.0306 29.9252 77.4102 113.436 126.143 197.844Z" stroke="#61DAFB" stroke-width="16.0435"/>
<path d="M126.143 130.461C77.4102 214.869 64.0306 298.379 96.2592 316.987C128.488 335.594 194.12 282.251 242.853 197.843C291.587 113.435 304.966 29.9244 272.737 11.3172C240.509 -7.28995 174.876 46.0523 126.143 130.461Z" stroke="#61DAFB" stroke-width="16.0435"/>
</g>
<defs>
<clipPath id="clip0_20_756">
<rect width="369" height="328.305" fill="white"/>
</clipPath>
</defs>
</svg>
