<svg width="221" height="221" viewBox="0 0 221 221" fill="none" xmlns="http://www.w3.org/2000/svg">
<g clip-path="url(#clip0_20_739)">
<path d="M199.418 0H21.582C9.6626 0 0 9.6626 0 21.582V199.418C0 211.337 9.6626 221 21.582 221H199.418C211.337 221 221 211.337 221 199.418V21.582C221 9.6626 211.337 0 199.418 0Z" fill="#3178C6"/>
<path d="M199.418 0H21.582C9.6626 0 0 9.6626 0 21.582V199.418C0 211.337 9.6626 221 21.582 221H199.418C211.337 221 221 211.337 221 199.418V21.582C221 9.6626 211.337 0 199.418 0Z" fill="#3178C6"/>
<path fill-rule="evenodd" clip-rule="evenodd" d="M136.804 175.861V197.469C140.316 199.27 144.471 200.62 149.267 201.52C154.064 202.421 159.119 202.871 164.433 202.871C169.612 202.871 174.532 202.376 179.193 201.385C183.855 200.395 187.942 198.763 191.455 196.49C194.967 194.217 197.748 191.245 199.797 187.576C201.846 183.907 202.871 179.372 202.871 173.97C202.871 170.053 202.286 166.621 201.115 163.673C199.944 160.724 198.255 158.102 196.048 155.806C193.842 153.51 191.196 151.45 188.111 149.627C185.026 147.804 181.547 146.082 177.674 144.461C174.836 143.291 172.292 142.154 170.04 141.052C167.788 139.948 165.874 138.823 164.298 137.675C162.722 136.527 161.506 135.312 160.65 134.029C159.795 132.745 159.366 131.294 159.366 129.673C159.366 128.188 159.749 126.848 160.515 125.655C161.281 124.462 162.362 123.438 163.758 122.583C165.154 121.728 166.865 121.064 168.891 120.591C170.918 120.118 173.17 119.882 175.647 119.882C177.448 119.882 179.351 120.017 181.355 120.287C183.359 120.557 185.375 120.974 187.402 121.536C189.428 122.099 191.398 122.808 193.312 123.663C195.226 124.519 196.994 125.509 198.615 126.635V106.444C195.328 105.184 191.736 104.25 187.841 103.642C183.945 103.034 179.475 102.73 174.431 102.73C169.297 102.73 164.433 103.282 159.84 104.385C155.246 105.488 151.204 107.21 147.713 109.55C144.223 111.892 141.465 114.874 139.438 118.498C137.412 122.121 136.398 126.454 136.398 131.496C136.398 137.934 138.256 143.426 141.972 147.973C145.687 152.519 151.328 156.368 158.894 159.52C161.866 160.735 164.636 161.928 167.203 163.098C169.77 164.269 171.988 165.485 173.857 166.745C175.726 168.005 177.201 169.378 178.282 170.864C179.363 172.349 179.903 174.037 179.903 175.929C179.903 177.324 179.565 178.618 178.89 179.811C178.214 181.004 177.189 182.039 175.816 182.917C174.442 183.795 172.731 184.481 170.682 184.977C168.632 185.472 166.235 185.719 163.487 185.719C158.804 185.719 154.165 184.898 149.571 183.255C144.978 181.612 140.722 179.147 136.804 175.861ZM100.477 122.621H128.197V104.889H50.9336V122.621H78.518V201.576H100.477V122.621Z" fill="white"/>
</g>
<defs>
<clipPath id="clip0_20_739">
<rect width="221" height="221" fill="white"/>
</clipPath>
</defs>
</svg>
